<svg xmlns="http://www.w3.org/2000/svg" width="44" height="44" viewBox="0 0 44 44">
  <path d="M10 33 Q9 39 22 39 Q35 39 34 33 L34 22 Q34 17 31 14 Q29 9 26 13 Q24 16 22 16 Q20 16 18 13 Q15 9 13 14 Q10 17 10 22 Z" fill="none" stroke="#ff453a" stroke-width="1.9" stroke-linejoin="round"/>
  <path d="M13 14 Q14.5 16 17 15" fill="none" stroke="#ff453a" stroke-width="1.1" stroke-linecap="round" opacity="0.45"/>
  <path d="M31 14 Q29.5 16 27 15" fill="none" stroke="#ff453a" stroke-width="1.1" stroke-linecap="round" opacity="0.45"/>
  <circle cx="16.5" cy="24" r="2.4" fill="#ff453a"/>
  <circle cx="27.5" cy="24" r="2.4" fill="#ff453a"/>
  <circle cx="15.7" cy="23.2" r="0.85" fill="rgba(28,28,30,0.65)"/>
  <circle cx="26.7" cy="23.2" r="0.85" fill="rgba(28,28,30,0.65)"/>
  <path d="M20.5 28.5 L22 26.5 L23.5 28.5 Z" fill="#ff453a"/>
  <path d="M18 32 Q22 36.5 26 32" fill="#ff453a"/>
</svg>