<svg xmlns="http://www.w3.org/2000/svg" width="44" height="44" viewBox="0 0 44 44">
  <circle cx="22" cy="23" r="19.5" fill="none" stroke="#b25000" stroke-width="1.6" stroke-dasharray="10 51" stroke-linecap="round" opacity="0.40"/>
  <path d="M10 33 Q9 39 22 39 Q35 39 34 33 L34 22 Q34 17 31 14 Q29 9 26 13 Q24 16 22 16 Q20 16 18 13 Q15 9 13 14 Q10 17 10 22 Z" fill="#f2f2f7" stroke="#b25000" stroke-width="1.9" stroke-linejoin="round"/>
  <path d="M13 14 Q14.5 16 17 15" fill="none" stroke="#b25000" stroke-width="1.1" stroke-linecap="round" opacity="0.40"/>
  <path d="M31 14 Q29.5 16 27 15" fill="none" stroke="#b25000" stroke-width="1.1" stroke-linecap="round" opacity="0.40"/>
  <path d="M14 24 Q16.5 21 19 24" fill="none" stroke="#b25000" stroke-width="1.7" stroke-linecap="round"/>
  <line x1="14" y1="24" x2="19" y2="24" stroke="#b25000" stroke-width="1.7" stroke-linecap="round"/>
  <path d="M25 24 Q27.5 21 30 24" fill="none" stroke="#b25000" stroke-width="1.7" stroke-linecap="round"/>
  <line x1="25" y1="24" x2="30" y2="24" stroke="#b25000" stroke-width="1.7" stroke-linecap="round"/>
  <path d="M20.5 28.5 L22 26.5 L23.5 28.5 Z" fill="#b25000" opacity="0.75"/>
  <path d="M18 32 Q20 30.5 22 32 Q24 33.5 26 32" fill="none" stroke="#b25000" stroke-width="1.2" stroke-linecap="round" opacity="0.55"/>
</svg>