<svg xmlns="http://www.w3.org/2000/svg" width="44" height="44" viewBox="0 0 44 44">
  <path d="M10 33 Q9 39 22 39 Q35 39 34 33 L34 22 Q34 17 31 14 Q29 9 26 13 Q24 16 22 16 Q20 16 18 13 Q15 9 13 14 Q10 17 10 22 Z" fill="none" stroke="#1a8f38" stroke-width="1.9" stroke-linejoin="round"/>
  <path d="M13 14 Q14.5 16 17 15" fill="none" stroke="#1a8f38" stroke-width="1.1" stroke-linecap="round" opacity="0.40"/>
  <path d="M31 14 Q29.5 16 27 15" fill="none" stroke="#1a8f38" stroke-width="1.1" stroke-linecap="round" opacity="0.40"/>
  <ellipse cx="16.5" cy="24" rx="2.2" ry="2.6" fill="#1a8f38"/>
  <ellipse cx="27.5" cy="24" rx="2.2" ry="2.6" fill="#1a8f38"/>
  <ellipse cx="16.5" cy="24" rx="0.75" ry="2" fill="rgba(242,242,247,0.50)"/>
  <ellipse cx="27.5" cy="24" rx="0.75" ry="2" fill="rgba(242,242,247,0.50)"/>
  <path d="M20.5 28.5 L22 26.5 L23.5 28.5 Z" fill="#1a8f38"/>
  <path d="M19 32 Q22 34 25 32" fill="none" stroke="#1a8f38" stroke-width="1.4" stroke-linecap="round"/>
  <circle cx="22" cy="43" r="3" fill="#1a8f38"/>
  <line x1="22" y1="39" x2="22" y2="40.5" stroke="#1a8f38" stroke-width="1.6" stroke-linecap="round"/>
</svg>